<svg data-v-d3f97b9e="" xmlns="http://www.w3.org/2000/svg" viewBox="0 0 210.20315199027297 60"><!----><!----><!----><g data-v-d3f97b9e="" id="4fe99f4d-b9dc-4e1f-802d-62a58e47e2e0" fill="#EF5350" transform="matrix(4.51467237522152,0,0,4.51467237522152,-2.483069229026597,-14.582391381238892)"><path d="M4.48 3.72C2.60 3.72 0.94 4.77 0.94 6.58C0.94 8.43 2.20 9.11 4.27 9.63C5.59 9.94 6.03 10.40 6.03 11.07C6.03 11.73 5.40 12.15 4.61 12.15C3.72 12.15 2.95 11.68 2.76 10.68L0.55 10.68C0.71 12.77 2.28 13.78 4.65 13.78C6.58 13.78 8.33 12.77 8.33 10.89C8.33 9.37 7.41 8.36 5.28 7.85C3.72 7.49 3.23 7.10 3.23 6.37C3.23 5.67 3.72 5.35 4.41 5.35C5.33 5.35 5.84 5.92 5.95 6.82L8.16 6.82C7.95 5.07 6.89 3.72 4.48 3.72ZM10.54 3.23C9.84 3.23 9.38 3.67 9.38 4.34C9.38 5.03 9.84 5.46 10.54 5.46C11.24 5.46 11.72 5.03 11.72 4.34C11.72 3.67 11.24 3.23 10.54 3.23ZM11.65 13.58L11.65 6.12L9.45 6.12L9.45 13.58ZM24.81 7.78C24.64 6.76 23.81 5.92 22.36 5.92C21.69 5.92 21.20 6.06 20.76 6.36L20.01 7.36C19.70 6.54 18.93 5.92 17.68 5.92C17.00 5.92 16.52 6.06 16.07 6.36L15.51 7.28L15.51 6.12L13.31 6.12L13.31 13.58L15.51 13.58L15.51 9.70C15.51 8.18 15.92 7.43 16.76 7.43C17.47 7.43 17.85 7.85 17.95 8.60C17.99 8.97 18.00 9.38 18.00 9.73L18.00 13.58L20.19 13.58L20.19 9.70C20.19 8.18 20.61 7.43 21.45 7.43C22.15 7.43 22.54 7.85 22.62 8.60C22.67 8.97 22.68 9.38 22.68 9.73L22.68 13.58L24.88 13.58L24.88 9.17C24.88 8.57 24.86 8.16 24.81 7.78ZM31.12 5.92C30.37 5.92 29.62 6.09 29.20 6.41L28.64 7.24L28.64 6.12L26.45 6.12L26.45 16.32L28.64 16.32L28.64 12.60L29.13 13.38C29.51 13.62 30.25 13.78 30.87 13.78C32.79 13.78 34.43 12.38 34.43 9.69C34.43 7.49 33.18 5.92 31.12 5.92ZM30.35 12.26C29.51 12.26 28.64 11.70 28.64 10.09L28.64 9.76C28.64 8.05 29.41 7.43 30.42 7.43C31.46 7.43 32.17 8.36 32.17 9.83C32.17 11.45 31.42 12.26 30.35 12.26ZM37.76 3.29L35.56 3.29L35.56 11.07C35.56 11.59 35.56 11.96 35.59 12.32C35.64 13.30 36.26 13.71 37.31 13.71C37.80 13.71 38.21 13.68 38.63 13.64L38.63 12.14C37.97 12.17 37.81 12.05 37.77 11.72C37.76 11.52 37.76 11.35 37.76 11.03ZM47.11 6.12L44.72 6.12L43.02 11.89L41.31 6.12L38.86 6.12L41.93 13.92L41.83 14.15C41.55 14.80 41.13 15.02 40.50 15.02C40.28 15.02 40.08 15.02 39.89 14.99L39.89 16.46C40.19 16.51 40.46 16.52 40.84 16.52C42.46 16.52 43.27 15.90 44.13 13.73Z"></path></g><!----><!----></svg>