<svg data-v-d3f97b9e="" xmlns="http://www.w3.org/2000/svg" viewBox="0 0 59.99999636695498 60"><!----><!----><!----><!----><g data-v-d3f97b9e="" id="c5e9b37e-c798-4c46-8482-d9f2760579d7" transform="matrix(0.47619047619047616,0,0,0.47619047619047616,-0.47618865966796875,-0.4761904761904745)" stroke="none" fill="#007bff"><path d="M111 2.892v106.223c0 .472-.021 1.019-.371 1.417-.391.445-1.046.469-1.58.469h-71.01c-.823 0-1.039-.707-1.039-1.532V39.084l-17-18.87V127h107V18.518L111 2.892z"></path><path d="M88 20H20.066l18.551 18H88z"></path><path d="M91 18.518v20.005l-.052 52.224L108 106.173V1H1v108.468l16 15.625V18.518c0-.825.613-1.518 1.438-1.518h71.351c.824 0 1.211.693 1.211 1.518z"></path><path d="M90.793 91C90.528 91.242 39 91 39 91v17h66.998L90.793 91z"></path></g><!----></svg>